# xmcd
#
# Track frame offsets:
#	150
#	10121
#	23767
#	44325
#	66569
#	83398
#	101713
#	121220
#	144780
#	171544
#	199131
#
# Disc length: 3084 seconds
#
# Revision: 1
# Processed by: cddbd v1.5.1PL0 Copyright (c) Steve Scherf et al.
# Submitted via: audiograbber 1.83.01
#
DISCID=8d0c0a0b
DTITLE=Hang Back - Wood'n Strings
DYEAR=1995
DGENRE=Blues
TTITLE0=Before You Go Home
TTITLE1=Poor Poor Elvis
TTITLE2=Midnight Blues
TTITLE3=Hang Back
TTITLE4=Ronny Is In The Bathroom
TTITLE5=The River
TTITLE6=Soldier Of Fortune
TTITLE7=December Blues
TTITLE8=Road House Blues
TTITLE9=Highway Of No Return
TTITLE10=Wonderful Tonight
EXTD=
EXTT0=
EXTT1=
EXTT2=
EXTT3=
EXTT4=
EXTT5=
EXTT6=
EXTT7=
EXTT8=
EXTT9=
EXTT10=
PLAYORDER=
